<?xml version="1.0" encoding="UTF-8" standalone="no"?>
<!DOCTYPE svg PUBLIC "-//W3C//DTD SVG 1.1//EN"
 "http://www.w3.org/Graphics/SVG/1.1/DTD/svg11.dtd">
<!-- Generated by graphviz version 2.38.0 (20140413.2041)
 -->
<!-- Title: controllers_diagram Pages: 1 -->
<svg width="1223pt" height="1009pt"
 viewBox="0.00 0.00 1222.80 1009.30" xmlns="http://www.w3.org/2000/svg" xmlns:xlink="http://www.w3.org/1999/xlink">
<g id="graph0" class="graph" transform="scale(1 1) rotate(0) translate(592.35 501.76)">
<title>controllers_diagram</title>
<polygon fill="none" stroke="none" points="-592.35,507.538 -592.35,-501.76 630.45,-501.76 630.45,507.538 -592.35,507.538"/>
<!-- _diagram_info -->
<g id="node1" class="node"><title>_diagram_info</title>
<text text-anchor="start" x="427.55" y="-227.1" font-family="Times,serif" font-size="13.00">Controllers diagram</text>
<text text-anchor="start" x="427.55" y="-214.1" font-family="Times,serif" font-size="13.00">Date: Aug 15 2015 &#45; 19:54</text>
<text text-anchor="start" x="427.55" y="-201.1" font-family="Times,serif" font-size="13.00">Migration version: 20150321155724</text>
<text text-anchor="start" x="427.55" y="-188.1" font-family="Times,serif" font-size="13.00">Generated by RailRoady 1.3.1</text>
<text text-anchor="start" x="427.55" y="-175.1" font-family="Times,serif" font-size="13.00">http://railroady.prestonlee.com</text>
</g>
<!-- ApplicationController -->
<g id="node2" class="node"><title>ApplicationController</title>
<path fill="none" stroke="black" d="M-215.356,-109.959C-215.356,-109.959 -41.4247,-109.959 -41.4247,-109.959 -35.4247,-109.959 -29.4247,-115.959 -29.4247,-121.959 -29.4247,-121.959 -29.4247,-187.959 -29.4247,-187.959 -29.4247,-193.959 -35.4247,-199.959 -41.4247,-199.959 -41.4247,-199.959 -215.356,-199.959 -215.356,-199.959 -221.356,-199.959 -227.356,-193.959 -227.356,-187.959 -227.356,-187.959 -227.356,-121.959 -227.356,-121.959 -227.356,-115.959 -221.356,-109.959 -215.356,-109.959"/>
<text text-anchor="middle" x="-128.391" y="-184.759" font-family="Times,serif" font-size="14.00">ApplicationController</text>
<polyline fill="none" stroke="black" points="-227.356,-177.959 -29.4247,-177.959 "/>
<polyline fill="none" stroke="black" points="-227.356,-153.959 -29.4247,-153.959 "/>
<text text-anchor="start" x="-219.356" y="-138.759" font-family="Times,serif" font-size="14.00">configure_permitted_parameters</text>
<polyline fill="none" stroke="black" points="-227.356,-131.959 -29.4247,-131.959 "/>
<text text-anchor="start" x="-219.356" y="-116.759" font-family="Times,serif" font-size="14.00">_layout</text>
</g>
<!-- CommentsController -->
<g id="node3" class="node"><title>CommentsController</title>
<path fill="none" stroke="black" d="M381.58,-300.551C381.58,-300.551 491.794,-300.551 491.794,-300.551 497.794,-300.551 503.794,-306.551 503.794,-312.551 503.794,-312.551 503.794,-406.551 503.794,-406.551 503.794,-412.551 497.794,-418.551 491.794,-418.551 491.794,-418.551 381.58,-418.551 381.58,-418.551 375.58,-418.551 369.58,-412.551 369.58,-406.551 369.58,-406.551 369.58,-312.551 369.58,-312.551 369.58,-306.551 375.58,-300.551 381.58,-300.551"/>
<text text-anchor="middle" x="436.687" y="-403.351" font-family="Times,serif" font-size="14.00">CommentsController</text>
<polyline fill="none" stroke="black" points="369.58,-396.551 503.794,-396.551 "/>
<text text-anchor="start" x="377.58" y="-381.351" font-family="Times,serif" font-size="14.00">create</text>
<text text-anchor="start" x="377.58" y="-367.351" font-family="Times,serif" font-size="14.00">destroy</text>
<polyline fill="none" stroke="black" points="369.58,-360.551 503.794,-360.551 "/>
<polyline fill="none" stroke="black" points="369.58,-336.551 503.794,-336.551 "/>
<text text-anchor="start" x="377.58" y="-321.351" font-family="Times,serif" font-size="14.00">_layout</text>
<text text-anchor="start" x="377.58" y="-307.351" font-family="Times,serif" font-size="14.00">comment_params</text>
</g>
<!-- ApplicationController&#45;&gt;CommentsController -->
<g id="edge1" class="edge"><title>ApplicationController&#45;&gt;CommentsController</title>
<path fill="none" stroke="black" d="M-29.3149,-190.831C85.1097,-232.259 270.262,-299.296 369.225,-335.126"/>
</g>
<!-- HomepageController -->
<g id="node4" class="node"><title>HomepageController</title>
<path fill="none" stroke="black" d="M-506.316,-88.6627C-506.316,-88.6627 -396.13,-88.6627 -396.13,-88.6627 -390.13,-88.6627 -384.13,-94.6627 -384.13,-100.663 -384.13,-100.663 -384.13,-168.663 -384.13,-168.663 -384.13,-174.663 -390.13,-180.663 -396.13,-180.663 -396.13,-180.663 -506.316,-180.663 -506.316,-180.663 -512.316,-180.663 -518.316,-174.663 -518.316,-168.663 -518.316,-168.663 -518.316,-100.663 -518.316,-100.663 -518.316,-94.6627 -512.316,-88.6627 -506.316,-88.6627"/>
<text text-anchor="middle" x="-451.223" y="-165.463" font-family="Times,serif" font-size="14.00">HomepageController</text>
<polyline fill="none" stroke="black" points="-518.316,-158.663 -384.13,-158.663 "/>
<polyline fill="none" stroke="black" points="-518.316,-134.663 -384.13,-134.663 "/>
<polyline fill="none" stroke="black" points="-518.316,-110.663 -384.13,-110.663 "/>
<text text-anchor="start" x="-510.316" y="-95.4627" font-family="Times,serif" font-size="14.00">_layout</text>
</g>
<!-- ApplicationController&#45;&gt;HomepageController -->
<g id="edge2" class="edge"><title>ApplicationController&#45;&gt;HomepageController</title>
<path fill="none" stroke="black" d="M-227.445,-148.732C-278.23,-145.539 -338.748,-141.734 -384.036,-138.887"/>
</g>
<!-- LikesController -->
<g id="node5" class="node"><title>LikesController</title>
<path fill="none" stroke="black" d="M-404.345,-364.952C-404.345,-364.952 -323.696,-364.952 -323.696,-364.952 -317.696,-364.952 -311.696,-370.952 -311.696,-376.952 -311.696,-376.952 -311.696,-442.952 -311.696,-442.952 -311.696,-448.952 -317.696,-454.952 -323.696,-454.952 -323.696,-454.952 -404.345,-454.952 -404.345,-454.952 -410.345,-454.952 -416.345,-448.952 -416.345,-442.952 -416.345,-442.952 -416.345,-376.952 -416.345,-376.952 -416.345,-370.952 -410.345,-364.952 -404.345,-364.952"/>
<text text-anchor="middle" x="-364.02" y="-439.752" font-family="Times,serif" font-size="14.00">LikesController</text>
<polyline fill="none" stroke="black" points="-416.345,-432.952 -311.696,-432.952 "/>
<text text-anchor="start" x="-408.345" y="-417.752" font-family="Times,serif" font-size="14.00">create</text>
<polyline fill="none" stroke="black" points="-416.345,-410.952 -311.696,-410.952 "/>
<polyline fill="none" stroke="black" points="-416.345,-386.952 -311.696,-386.952 "/>
<text text-anchor="start" x="-408.345" y="-371.752" font-family="Times,serif" font-size="14.00">_layout</text>
</g>
<!-- ApplicationController&#45;&gt;LikesController -->
<g id="edge3" class="edge"><title>ApplicationController&#45;&gt;LikesController</title>
<path fill="none" stroke="black" d="M-169.974,-199.96C-212.78,-246.284 -279.116,-318.071 -322.06,-364.544"/>
</g>
<!-- PicturesController -->
<g id="node6" class="node"><title>PicturesController</title>
<path fill="none" stroke="black" d="M10.0358,-295.26C10.0358,-295.26 104.684,-295.26 104.684,-295.26 110.684,-295.26 116.684,-301.26 116.684,-307.26 116.684,-307.26 116.684,-485.26 116.684,-485.26 116.684,-491.26 110.684,-497.26 104.684,-497.26 104.684,-497.26 10.0358,-497.26 10.0358,-497.26 4.03584,-497.26 -1.96416,-491.26 -1.96416,-485.26 -1.96416,-485.26 -1.96416,-307.26 -1.96416,-307.26 -1.96416,-301.26 4.03584,-295.26 10.0358,-295.26"/>
<text text-anchor="middle" x="57.3601" y="-482.06" font-family="Times,serif" font-size="14.00">PicturesController</text>
<polyline fill="none" stroke="black" points="-1.96416,-475.26 116.684,-475.26 "/>
<text text-anchor="start" x="6.03584" y="-460.06" font-family="Times,serif" font-size="14.00">create</text>
<text text-anchor="start" x="6.03584" y="-446.06" font-family="Times,serif" font-size="14.00">destroy</text>
<text text-anchor="start" x="6.03584" y="-432.06" font-family="Times,serif" font-size="14.00">index</text>
<text text-anchor="start" x="6.03584" y="-418.06" font-family="Times,serif" font-size="14.00">new</text>
<text text-anchor="start" x="6.03584" y="-404.06" font-family="Times,serif" font-size="14.00">show</text>
<polyline fill="none" stroke="black" points="-1.96416,-397.26 116.684,-397.26 "/>
<polyline fill="none" stroke="black" points="-1.96416,-373.26 116.684,-373.26 "/>
<text text-anchor="start" x="6.03584" y="-358.06" font-family="Times,serif" font-size="14.00">_layout</text>
<text text-anchor="start" x="6.03584" y="-344.06" font-family="Times,serif" font-size="14.00">comment_params</text>
<text text-anchor="start" x="6.03584" y="-330.06" font-family="Times,serif" font-size="14.00">page_key</text>
<text text-anchor="start" x="6.03584" y="-316.06" font-family="Times,serif" font-size="14.00">page_params</text>
<text text-anchor="start" x="6.03584" y="-302.06" font-family="Times,serif" font-size="14.00">picture_params</text>
</g>
<!-- ApplicationController&#45;&gt;PicturesController -->
<g id="edge4" class="edge"><title>ApplicationController&#45;&gt;PicturesController</title>
<path fill="none" stroke="black" d="M-93.6702,-200.063C-67.9438,-233.483 -32.2558,-279.844 -2.03066,-319.108"/>
</g>
<!-- DeviseController -->
<g id="node14" class="node"><title>DeviseController</title>
<path fill="none" stroke="black" d="M-103.797,272.148C-103.797,272.148 40.6167,272.148 40.6167,272.148 46.6167,272.148 52.6167,266.148 52.6167,260.148 52.6167,260.148 52.6167,-41.852 52.6167,-41.852 52.6167,-47.852 46.6167,-53.852 40.6167,-53.852 40.6167,-53.852 -103.797,-53.852 -103.797,-53.852 -109.797,-53.852 -115.797,-47.852 -115.797,-41.852 -115.797,-41.852 -115.797,260.148 -115.797,260.148 -115.797,266.148 -109.797,272.148 -103.797,272.148"/>
<text text-anchor="middle" x="-31.5903" y="-38.652" font-family="Times,serif" font-size="14.00">DeviseController</text>
<polyline fill="none" stroke="black" points="-115.797,-31.852 52.6167,-31.852 "/>
<text text-anchor="start" x="-107.797" y="-16.652" font-family="Times,serif" font-size="14.00">_prefixes</text>
<text text-anchor="start" x="-107.797" y="-2.65201" font-family="Times,serif" font-size="14.00">devise_mapping</text>
<text text-anchor="start" x="-107.797" y="11.348" font-family="Times,serif" font-size="14.00">resource</text>
<text text-anchor="start" x="-107.797" y="25.348" font-family="Times,serif" font-size="14.00">resource_class</text>
<text text-anchor="start" x="-107.797" y="39.348" font-family="Times,serif" font-size="14.00">resource_name</text>
<text text-anchor="start" x="-107.797" y="53.348" font-family="Times,serif" font-size="14.00">scope_name</text>
<text text-anchor="start" x="-107.797" y="67.348" font-family="Times,serif" font-size="14.00">signed_in_resource</text>
<polyline fill="none" stroke="black" points="-115.797,74.148 52.6167,74.148 "/>
<text text-anchor="start" x="-107.797" y="89.348" font-family="Times,serif" font-size="14.00">assert_is_devise_resource!</text>
<text text-anchor="start" x="-107.797" y="103.348" font-family="Times,serif" font-size="14.00">clean_up_passwords</text>
<text text-anchor="start" x="-107.797" y="117.348" font-family="Times,serif" font-size="14.00">devise_i18n_options</text>
<text text-anchor="start" x="-107.797" y="131.348" font-family="Times,serif" font-size="14.00">find_message</text>
<text text-anchor="start" x="-107.797" y="145.348" font-family="Times,serif" font-size="14.00">navigational_formats</text>
<text text-anchor="start" x="-107.797" y="159.348" font-family="Times,serif" font-size="14.00">require_no_authentication</text>
<text text-anchor="start" x="-107.797" y="173.348" font-family="Times,serif" font-size="14.00">resource=</text>
<text text-anchor="start" x="-107.797" y="187.348" font-family="Times,serif" font-size="14.00">resource_params</text>
<text text-anchor="start" x="-107.797" y="201.348" font-family="Times,serif" font-size="14.00">respond_with_navigational</text>
<text text-anchor="start" x="-107.797" y="215.348" font-family="Times,serif" font-size="14.00">set_flash_message</text>
<text text-anchor="start" x="-107.797" y="229.348" font-family="Times,serif" font-size="14.00">successfully_sent?</text>
<text text-anchor="start" x="-107.797" y="243.348" font-family="Times,serif" font-size="14.00">unknown_action!</text>
<polyline fill="none" stroke="black" points="-115.797,250.148 52.6167,250.148 "/>
<text text-anchor="start" x="-107.797" y="265.348" font-family="Times,serif" font-size="14.00">_layout</text>
</g>
<!-- ApplicationController&#45;&gt;DeviseController -->
<g id="edge12" class="edge"><title>ApplicationController&#45;&gt;DeviseController</title>
<path fill="none" stroke="black" d="M-111.86,-109.858C-105.92,-93.6517 -98.8275,-74.3003 -91.3516,-53.9032"/>
</g>
<!-- Users::OmniauthCallbacksController -->
<g id="node7" class="node"><title>Users::OmniauthCallbacksController</title>
<path fill="none" stroke="black" d="M366.409,55.5132C366.409,55.5132 566.816,55.5132 566.816,55.5132 572.816,55.5132 578.816,49.5132 578.816,43.5132 578.816,43.5132 578.816,-22.4868 578.816,-22.4868 578.816,-28.4868 572.816,-34.4868 566.816,-34.4868 566.816,-34.4868 366.409,-34.4868 366.409,-34.4868 360.409,-34.4868 354.409,-28.4868 354.409,-22.4868 354.409,-22.4868 354.409,43.5132 354.409,43.5132 354.409,49.5132 360.409,55.5132 366.409,55.5132"/>
<text text-anchor="middle" x="466.612" y="-19.2868" font-family="Times,serif" font-size="14.00">Users::OmniauthCallbacksController</text>
<polyline fill="none" stroke="black" points="354.409,-12.4868 578.816,-12.4868 "/>
<text text-anchor="start" x="362.409" y="2.71319" font-family="Times,serif" font-size="14.00">facebook</text>
<polyline fill="none" stroke="black" points="354.409,9.51319 578.816,9.51319 "/>
<polyline fill="none" stroke="black" points="354.409,33.5132 578.816,33.5132 "/>
<text text-anchor="start" x="362.409" y="48.7132" font-family="Times,serif" font-size="14.00">_layout</text>
</g>
<!-- Devise::ConfirmationsController -->
<g id="node8" class="node"><title>Devise::ConfirmationsController</title>
<path fill="none" stroke="black" d="M-254.608,458C-254.608,458 29.7651,458 29.7651,458 35.7651,458 41.7651,452 41.7651,446 41.7651,446 41.7651,340 41.7651,340 41.7651,334 35.7651,328 29.7651,328 29.7651,328 -254.608,328 -254.608,328 -260.608,328 -266.608,334 -266.608,340 -266.608,340 -266.608,446 -266.608,446 -266.608,452 -260.608,458 -254.608,458"/>
<text text-anchor="middle" x="-112.421" y="343.2" font-family="Times,serif" font-size="14.00">Devise::ConfirmationsController</text>
<polyline fill="none" stroke="black" points="-266.608,350 41.7651,350 "/>
<text text-anchor="start" x="-258.608" y="365.2" font-family="Times,serif" font-size="14.00">create</text>
<text text-anchor="start" x="-258.608" y="379.2" font-family="Times,serif" font-size="14.00">new</text>
<text text-anchor="start" x="-258.608" y="393.2" font-family="Times,serif" font-size="14.00">show</text>
<polyline fill="none" stroke="black" points="-266.608,400 41.7651,400 "/>
<text text-anchor="start" x="-258.608" y="415.2" font-family="Times,serif" font-size="14.00">after_confirmation_path_for</text>
<text text-anchor="start" x="-258.608" y="429.2" font-family="Times,serif" font-size="14.00">after_resending_confirmation_instructions_path_for</text>
<polyline fill="none" stroke="black" points="-266.608,436 41.7651,436 "/>
<text text-anchor="start" x="-258.608" y="451.2" font-family="Times,serif" font-size="14.00">_layout</text>
</g>
<!-- Devise::OmniauthCallbacksController -->
<g id="node9" class="node"><title>Devise::OmniauthCallbacksController</title>
<path fill="none" stroke="black" d="M81.5631,-9.41671C81.5631,-9.41671 288.963,-9.41671 288.963,-9.41671 294.963,-9.41671 300.963,-15.4167 300.963,-21.4167 300.963,-21.4167 300.963,-127.417 300.963,-127.417 300.963,-133.417 294.963,-139.417 288.963,-139.417 288.963,-139.417 81.5631,-139.417 81.5631,-139.417 75.5631,-139.417 69.5631,-133.417 69.5631,-127.417 69.5631,-127.417 69.5631,-21.4167 69.5631,-21.4167 69.5631,-15.4167 75.5631,-9.41671 81.5631,-9.41671"/>
<text text-anchor="middle" x="185.263" y="-124.217" font-family="Times,serif" font-size="14.00">Devise::OmniauthCallbacksController</text>
<polyline fill="none" stroke="black" points="69.5631,-117.417 300.963,-117.417 "/>
<text text-anchor="start" x="77.5631" y="-102.217" font-family="Times,serif" font-size="14.00">failure</text>
<text text-anchor="start" x="77.5631" y="-88.2167" font-family="Times,serif" font-size="14.00">passthru</text>
<polyline fill="none" stroke="black" points="69.5631,-81.4167 300.963,-81.4167 "/>
<text text-anchor="start" x="77.5631" y="-66.2167" font-family="Times,serif" font-size="14.00">after_omniauth_failure_path_for</text>
<text text-anchor="start" x="77.5631" y="-52.2167" font-family="Times,serif" font-size="14.00">failed_strategy</text>
<text text-anchor="start" x="77.5631" y="-38.2167" font-family="Times,serif" font-size="14.00">failure_message</text>
<polyline fill="none" stroke="black" points="69.5631,-31.4167 300.963,-31.4167 "/>
<text text-anchor="start" x="77.5631" y="-16.2167" font-family="Times,serif" font-size="14.00">_layout</text>
</g>
<!-- Devise::OmniauthCallbacksController&#45;&gt;Users::OmniauthCallbacksController -->
<g id="edge5" class="edge"><title>Devise::OmniauthCallbacksController&#45;&gt;Users::OmniauthCallbacksController</title>
<path fill="none" stroke="black" d="M301.323,-39.3821C318.73,-34.1274 336.657,-28.716 353.991,-23.4835"/>
</g>
<!-- Devise::PasswordsController -->
<g id="node10" class="node"><title>Devise::PasswordsController</title>
<path fill="none" stroke="black" d="M-576.35,468.965C-576.35,468.965 -288.087,468.965 -288.087,468.965 -282.087,468.965 -276.087,462.965 -276.087,456.965 -276.087,456.965 -276.087,308.965 -276.087,308.965 -276.087,302.965 -282.087,296.965 -288.087,296.965 -288.087,296.965 -576.35,296.965 -576.35,296.965 -582.35,296.965 -588.35,302.965 -588.35,308.965 -588.35,308.965 -588.35,456.965 -588.35,456.965 -588.35,462.965 -582.35,468.965 -576.35,468.965"/>
<text text-anchor="middle" x="-432.218" y="312.165" font-family="Times,serif" font-size="14.00">Devise::PasswordsController</text>
<polyline fill="none" stroke="black" points="-588.35,318.965 -276.087,318.965 "/>
<text text-anchor="start" x="-580.35" y="334.165" font-family="Times,serif" font-size="14.00">create</text>
<text text-anchor="start" x="-580.35" y="348.165" font-family="Times,serif" font-size="14.00">edit</text>
<text text-anchor="start" x="-580.35" y="362.165" font-family="Times,serif" font-size="14.00">new</text>
<text text-anchor="start" x="-580.35" y="376.165" font-family="Times,serif" font-size="14.00">update</text>
<polyline fill="none" stroke="black" points="-588.35,382.965 -276.087,382.965 "/>
<text text-anchor="start" x="-580.35" y="398.165" font-family="Times,serif" font-size="14.00">after_resetting_password_path_for</text>
<text text-anchor="start" x="-580.35" y="412.165" font-family="Times,serif" font-size="14.00">after_sending_reset_password_instructions_path_for</text>
<text text-anchor="start" x="-580.35" y="426.165" font-family="Times,serif" font-size="14.00">assert_reset_token_passed</text>
<text text-anchor="start" x="-580.35" y="440.165" font-family="Times,serif" font-size="14.00">unlockable?</text>
<polyline fill="none" stroke="black" points="-588.35,446.965 -276.087,446.965 "/>
<text text-anchor="start" x="-580.35" y="462.165" font-family="Times,serif" font-size="14.00">_layout</text>
</g>
<!-- Devise::RegistrationsController -->
<g id="node11" class="node"><title>Devise::RegistrationsController</title>
<path fill="none" stroke="black" d="M379.437,503.038C379.437,503.038 554.154,503.038 554.154,503.038 560.154,503.038 566.154,497.038 566.154,491.038 566.154,491.038 566.154,231.038 566.154,231.038 566.154,225.038 560.154,219.038 554.154,219.038 554.154,219.038 379.437,219.038 379.437,219.038 373.437,219.038 367.437,225.038 367.437,231.038 367.437,231.038 367.437,491.038 367.437,491.038 367.437,497.038 373.437,503.038 379.437,503.038"/>
<text text-anchor="middle" x="466.795" y="234.238" font-family="Times,serif" font-size="14.00">Devise::RegistrationsController</text>
<polyline fill="none" stroke="black" points="367.437,241.038 566.154,241.038 "/>
<text text-anchor="start" x="375.437" y="256.238" font-family="Times,serif" font-size="14.00">cancel</text>
<text text-anchor="start" x="375.437" y="270.238" font-family="Times,serif" font-size="14.00">create</text>
<text text-anchor="start" x="375.437" y="284.238" font-family="Times,serif" font-size="14.00">destroy</text>
<text text-anchor="start" x="375.437" y="298.238" font-family="Times,serif" font-size="14.00">edit</text>
<text text-anchor="start" x="375.437" y="312.238" font-family="Times,serif" font-size="14.00">new</text>
<text text-anchor="start" x="375.437" y="326.238" font-family="Times,serif" font-size="14.00">update</text>
<polyline fill="none" stroke="black" points="367.437,333.038 566.154,333.038 "/>
<text text-anchor="start" x="375.437" y="348.238" font-family="Times,serif" font-size="14.00">account_update_params</text>
<text text-anchor="start" x="375.437" y="362.238" font-family="Times,serif" font-size="14.00">after_inactive_sign_up_path_for</text>
<text text-anchor="start" x="375.437" y="376.238" font-family="Times,serif" font-size="14.00">after_sign_up_path_for</text>
<text text-anchor="start" x="375.437" y="390.238" font-family="Times,serif" font-size="14.00">after_update_path_for</text>
<text text-anchor="start" x="375.437" y="404.238" font-family="Times,serif" font-size="14.00">authenticate_scope!</text>
<text text-anchor="start" x="375.437" y="418.238" font-family="Times,serif" font-size="14.00">build_resource</text>
<text text-anchor="start" x="375.437" y="432.238" font-family="Times,serif" font-size="14.00">sign_up</text>
<text text-anchor="start" x="375.437" y="446.238" font-family="Times,serif" font-size="14.00">sign_up_params</text>
<text text-anchor="start" x="375.437" y="460.238" font-family="Times,serif" font-size="14.00">update_needs_confirmation?</text>
<text text-anchor="start" x="375.437" y="474.238" font-family="Times,serif" font-size="14.00">update_resource</text>
<polyline fill="none" stroke="black" points="367.437,481.038 566.154,481.038 "/>
<text text-anchor="start" x="375.437" y="496.238" font-family="Times,serif" font-size="14.00">_layout</text>
</g>
<!-- Devise::SessionsController -->
<g id="node12" class="node"><title>Devise::SessionsController</title>
<path fill="none" stroke="black" d="M105.841,436.727C105.841,436.727 250.276,436.727 250.276,436.727 256.276,436.727 262.276,430.727 262.276,424.727 262.276,424.727 262.276,262.727 262.276,262.727 262.276,256.727 256.276,250.727 250.276,250.727 250.276,250.727 105.841,250.727 105.841,250.727 99.8415,250.727 93.8415,256.727 93.8415,262.727 93.8415,262.727 93.8415,424.727 93.8415,424.727 93.8415,430.727 99.8415,436.727 105.841,436.727"/>
<text text-anchor="middle" x="178.059" y="265.927" font-family="Times,serif" font-size="14.00">Devise::SessionsController</text>
<polyline fill="none" stroke="black" points="93.8415,272.727 262.276,272.727 "/>
<text text-anchor="start" x="101.841" y="287.927" font-family="Times,serif" font-size="14.00">create</text>
<text text-anchor="start" x="101.841" y="301.927" font-family="Times,serif" font-size="14.00">destroy</text>
<text text-anchor="start" x="101.841" y="315.927" font-family="Times,serif" font-size="14.00">new</text>
<polyline fill="none" stroke="black" points="93.8415,322.727 262.276,322.727 "/>
<text text-anchor="start" x="101.841" y="337.927" font-family="Times,serif" font-size="14.00">auth_options</text>
<text text-anchor="start" x="101.841" y="351.927" font-family="Times,serif" font-size="14.00">serialize_options</text>
<text text-anchor="start" x="101.841" y="365.927" font-family="Times,serif" font-size="14.00">sign_in_params</text>
<polyline fill="none" stroke="black" points="93.8415,372.727 262.276,372.727 "/>
<text text-anchor="start" x="101.841" y="387.927" font-family="Times,serif" font-size="14.00">_layout</text>
<text text-anchor="start" x="101.841" y="401.927" font-family="Times,serif" font-size="14.00">all_signed_out?</text>
<text text-anchor="start" x="101.841" y="415.927" font-family="Times,serif" font-size="14.00">respond_to_on_destroy</text>
<text text-anchor="start" x="101.841" y="429.927" font-family="Times,serif" font-size="14.00">verify_signed_out_user</text>
</g>
<!-- Devise::UnlocksController -->
<g id="node13" class="node"><title>Devise::UnlocksController</title>
<path fill="none" stroke="black" d="M-492.056,176.602C-492.056,176.602 -252,176.602 -252,176.602 -246,176.602 -240,170.602 -240,164.602 -240,164.602 -240,58.6018 -240,58.6018 -240,52.6018 -246,46.6018 -252,46.6018 -252,46.6018 -492.056,46.6018 -492.056,46.6018 -498.056,46.6018 -504.056,52.6018 -504.056,58.6018 -504.056,58.6018 -504.056,164.602 -504.056,164.602 -504.056,170.602 -498.056,176.602 -492.056,176.602"/>
<text text-anchor="middle" x="-372.028" y="61.8018" font-family="Times,serif" font-size="14.00">Devise::UnlocksController</text>
<polyline fill="none" stroke="black" points="-504.056,68.6018 -240,68.6018 "/>
<text text-anchor="start" x="-496.056" y="83.8018" font-family="Times,serif" font-size="14.00">create</text>
<text text-anchor="start" x="-496.056" y="97.8018" font-family="Times,serif" font-size="14.00">new</text>
<text text-anchor="start" x="-496.056" y="111.802" font-family="Times,serif" font-size="14.00">show</text>
<polyline fill="none" stroke="black" points="-504.056,118.602 -240,118.602 "/>
<text text-anchor="start" x="-496.056" y="133.802" font-family="Times,serif" font-size="14.00">after_sending_unlock_instructions_path_for</text>
<text text-anchor="start" x="-496.056" y="147.802" font-family="Times,serif" font-size="14.00">after_unlock_path_for</text>
<polyline fill="none" stroke="black" points="-504.056,154.602 -240,154.602 "/>
<text text-anchor="start" x="-496.056" y="169.802" font-family="Times,serif" font-size="14.00">_layout</text>
</g>
<!-- DeviseController&#45;&gt;Devise::ConfirmationsController -->
<g id="edge6" class="edge"><title>DeviseController&#45;&gt;Devise::ConfirmationsController</title>
<path fill="none" stroke="black" d="M-78.0246,272.21C-83.6189,291.855 -89.0558,310.948 -93.8936,327.936"/>
</g>
<!-- DeviseController&#45;&gt;Devise::OmniauthCallbacksController -->
<g id="edge7" class="edge"><title>DeviseController&#45;&gt;Devise::OmniauthCallbacksController</title>
<path fill="none" stroke="black" d="M52.8719,37.6515C71.1861,22.1486 90.4606,5.83297 108.461,-9.404"/>
</g>
<!-- DeviseController&#45;&gt;Devise::PasswordsController -->
<g id="edge8" class="edge"><title>DeviseController&#45;&gt;Devise::PasswordsController</title>
<path fill="none" stroke="black" d="M-116.064,166.883C-171.275,204.618 -244.375,254.58 -306.377,296.956"/>
</g>
<!-- DeviseController&#45;&gt;Devise::RegistrationsController -->
<g id="edge9" class="edge"><title>DeviseController&#45;&gt;Devise::RegistrationsController</title>
<path fill="none" stroke="black" d="M52.7986,146.357C112.72,173.286 194.756,211.188 265.476,247.527 299.023,264.765 335.077,284.648 367.274,302.91"/>
</g>
<!-- DeviseController&#45;&gt;Devise::SessionsController -->
<g id="edge10" class="edge"><title>DeviseController&#45;&gt;Devise::SessionsController</title>
<path fill="none" stroke="black" d="M52.7758,203.546C66.657,219.078 81.0364,235.168 94.8882,250.667"/>
</g>
<!-- DeviseController&#45;&gt;Devise::UnlocksController -->
<g id="edge11" class="edge"><title>DeviseController&#45;&gt;Devise::UnlocksController</title>
<path fill="none" stroke="black" d="M-116.181,109.758C-153.498,110.027 -198.239,110.349 -239.797,110.649"/>
</g>
</g>
</svg>
