<?xml version="1.0" encoding="UTF-8" standalone="no"?>
<!DOCTYPE svg PUBLIC "-//W3C//DTD SVG 1.1//EN"
 "http://www.w3.org/Graphics/SVG/1.1/DTD/svg11.dtd">
<!-- Generated by graphviz version 2.38.0 (20140413.2041)
 -->
<!-- Title: models_diagram Pages: 1 -->
<svg width="543pt" height="744pt"
 viewBox="0.00 0.00 543.15 744.00" xmlns="http://www.w3.org/2000/svg" xmlns:xlink="http://www.w3.org/1999/xlink">
<g id="graph0" class="graph" transform="scale(1 1) rotate(0) translate(4 740)">
<title>models_diagram</title>
<polygon fill="none" stroke="none" points="-4,4 -4,-740 539.154,-740 539.154,4 -4,4"/>
<!-- _diagram_info -->
<g id="node1" class="node"><title>_diagram_info</title>
<text text-anchor="start" x="8" y="-721.6" font-family="Times,serif" font-size="13.00">Models diagram</text>
<text text-anchor="start" x="8" y="-708.6" font-family="Times,serif" font-size="13.00">Date: Aug 15 2015 &#45; 19:54</text>
<text text-anchor="start" x="8" y="-695.6" font-family="Times,serif" font-size="13.00">Migration version: 20150321155724</text>
<text text-anchor="start" x="8" y="-682.6" font-family="Times,serif" font-size="13.00">Generated by RailRoady 1.3.1</text>
<text text-anchor="start" x="8" y="-669.6" font-family="Times,serif" font-size="13.00">http://railroady.prestonlee.com</text>
</g>
<!-- Comment -->
<g id="node2" class="node"><title>Comment</title>
<path fill="none" stroke="black" d="M378.944,-0.5C378.944,-0.5 487.955,-0.5 487.955,-0.5 493.955,-0.5 499.955,-6.5 499.955,-12.5 499.955,-12.5 499.955,-102.5 499.955,-102.5 499.955,-108.5 493.955,-114.5 487.955,-114.5 487.955,-114.5 378.944,-114.5 378.944,-114.5 372.944,-114.5 366.944,-108.5 366.944,-102.5 366.944,-102.5 366.944,-12.5 366.944,-12.5 366.944,-6.5 372.944,-0.5 378.944,-0.5"/>
<text text-anchor="middle" x="433.45" y="-99.3" font-family="Times,serif" font-size="14.00">Comment</text>
<polyline fill="none" stroke="black" points="366.944,-92.5 499.955,-92.5 "/>
<text text-anchor="start" x="374.944" y="-77.3" font-family="Times,serif" font-size="14.00">id :integer</text>
<text text-anchor="start" x="374.944" y="-63.3" font-family="Times,serif" font-size="14.00">created_at :datetime</text>
<text text-anchor="start" x="374.944" y="-49.3" font-family="Times,serif" font-size="14.00">updated_at :datetime</text>
<text text-anchor="start" x="374.944" y="-35.3" font-family="Times,serif" font-size="14.00">picture_id :integer</text>
<text text-anchor="start" x="374.944" y="-21.3" font-family="Times,serif" font-size="14.00">user_id :integer</text>
<text text-anchor="start" x="374.944" y="-7.3" font-family="Times,serif" font-size="14.00">comment :string</text>
</g>
<!-- Like -->
<g id="node3" class="node"><title>Like</title>
<path fill="none" stroke="black" d="M187.944,-14.5C187.944,-14.5 296.955,-14.5 296.955,-14.5 302.955,-14.5 308.955,-20.5 308.955,-26.5 308.955,-26.5 308.955,-88.5 308.955,-88.5 308.955,-94.5 302.955,-100.5 296.955,-100.5 296.955,-100.5 187.944,-100.5 187.944,-100.5 181.944,-100.5 175.944,-94.5 175.944,-88.5 175.944,-88.5 175.944,-26.5 175.944,-26.5 175.944,-20.5 181.944,-14.5 187.944,-14.5"/>
<text text-anchor="middle" x="242.45" y="-85.3" font-family="Times,serif" font-size="14.00">Like</text>
<polyline fill="none" stroke="black" points="175.944,-78.5 308.955,-78.5 "/>
<text text-anchor="start" x="183.944" y="-63.3" font-family="Times,serif" font-size="14.00">id :integer</text>
<text text-anchor="start" x="183.944" y="-49.3" font-family="Times,serif" font-size="14.00">picture_id :integer</text>
<text text-anchor="start" x="183.944" y="-35.3" font-family="Times,serif" font-size="14.00">created_at :datetime</text>
<text text-anchor="start" x="183.944" y="-21.3" font-family="Times,serif" font-size="14.00">updated_at :datetime</text>
</g>
<!-- Picture -->
<g id="node4" class="node"><title>Picture</title>
<path fill="none" stroke="black" d="M243.341,-151.5C243.341,-151.5 393.559,-151.5 393.559,-151.5 399.559,-151.5 405.559,-157.5 405.559,-163.5 405.559,-163.5 405.559,-281.5 405.559,-281.5 405.559,-287.5 399.559,-293.5 393.559,-293.5 393.559,-293.5 243.341,-293.5 243.341,-293.5 237.341,-293.5 231.341,-287.5 231.341,-281.5 231.341,-281.5 231.341,-163.5 231.341,-163.5 231.341,-157.5 237.341,-151.5 243.341,-151.5"/>
<text text-anchor="middle" x="318.45" y="-278.3" font-family="Times,serif" font-size="14.00">Picture</text>
<polyline fill="none" stroke="black" points="231.341,-271.5 405.559,-271.5 "/>
<text text-anchor="start" x="239.341" y="-256.3" font-family="Times,serif" font-size="14.00">id :integer</text>
<text text-anchor="start" x="239.341" y="-242.3" font-family="Times,serif" font-size="14.00">created_at :datetime</text>
<text text-anchor="start" x="239.341" y="-228.3" font-family="Times,serif" font-size="14.00">updated_at :datetime</text>
<text text-anchor="start" x="239.341" y="-214.3" font-family="Times,serif" font-size="14.00">image_file_name :string</text>
<text text-anchor="start" x="239.341" y="-200.3" font-family="Times,serif" font-size="14.00">image_content_type :string</text>
<text text-anchor="start" x="239.341" y="-186.3" font-family="Times,serif" font-size="14.00">image_file_size :integer</text>
<text text-anchor="start" x="239.341" y="-172.3" font-family="Times,serif" font-size="14.00">image_updated_at :datetime</text>
<text text-anchor="start" x="239.341" y="-158.3" font-family="Times,serif" font-size="14.00">user_id :integer</text>
</g>
<!-- Picture&#45;&gt;Comment -->
<g id="edge3" class="edge"><title>Picture&#45;&gt;Comment</title>
<path fill="none" stroke="#55a457" d="M372.567,-144.795C377.701,-137.518 382.871,-130.19 387.913,-123.044"/>
<ellipse fill="none" stroke="#55a457" cx="370.193" cy="-148.159" rx="4.00002" ry="4.00002"/>
<polygon fill="#55a457" stroke="#55a457" points="387.998,-122.923 397.44,-117.346 390.88,-118.838 393.763,-114.752 393.763,-114.752 393.763,-114.752 390.88,-118.838 390.086,-112.158 387.998,-122.923 387.998,-122.923"/>
</g>
<!-- Picture&#45;&gt;Like -->
<g id="edge4" class="edge"><title>Picture&#45;&gt;Like</title>
<path fill="none" stroke="#512b3a" d="M282.368,-144.114C276.979,-132.555 271.538,-120.886 266.48,-110.039"/>
<ellipse fill="none" stroke="#512b3a" cx="284.087" cy="-147.802" rx="4.00002" ry="4.00002"/>
<polygon fill="#512b3a" stroke="#512b3a" points="266.371,-109.805 266.224,-98.8399 264.258,-105.273 262.145,-100.742 262.145,-100.742 262.145,-100.742 264.258,-105.273 258.067,-102.643 266.371,-109.805 266.371,-109.805"/>
</g>
<!-- User -->
<g id="node5" class="node"><title>User</title>
<path fill="none" stroke="black" d="M281.172,-330.5C281.172,-330.5 461.728,-330.5 461.728,-330.5 467.728,-330.5 473.728,-336.5 473.728,-342.5 473.728,-342.5 473.728,-614.5 473.728,-614.5 473.728,-620.5 467.728,-626.5 461.728,-626.5 461.728,-626.5 281.172,-626.5 281.172,-626.5 275.172,-626.5 269.172,-620.5 269.172,-614.5 269.172,-614.5 269.172,-342.5 269.172,-342.5 269.172,-336.5 275.172,-330.5 281.172,-330.5"/>
<text text-anchor="middle" x="371.45" y="-611.3" font-family="Times,serif" font-size="14.00">User</text>
<polyline fill="none" stroke="black" points="269.172,-604.5 473.728,-604.5 "/>
<text text-anchor="start" x="277.172" y="-589.3" font-family="Times,serif" font-size="14.00">id :integer</text>
<text text-anchor="start" x="277.172" y="-575.3" font-family="Times,serif" font-size="14.00">email :string</text>
<text text-anchor="start" x="277.172" y="-561.3" font-family="Times,serif" font-size="14.00">encrypted_password :string</text>
<text text-anchor="start" x="277.172" y="-547.3" font-family="Times,serif" font-size="14.00">reset_password_token :string</text>
<text text-anchor="start" x="277.172" y="-533.3" font-family="Times,serif" font-size="14.00">reset_password_sent_at :datetime</text>
<text text-anchor="start" x="277.172" y="-519.3" font-family="Times,serif" font-size="14.00">remember_created_at :datetime</text>
<text text-anchor="start" x="277.172" y="-505.3" font-family="Times,serif" font-size="14.00">sign_in_count :integer</text>
<text text-anchor="start" x="277.172" y="-491.3" font-family="Times,serif" font-size="14.00">current_sign_in_at :datetime</text>
<text text-anchor="start" x="277.172" y="-477.3" font-family="Times,serif" font-size="14.00">last_sign_in_at :datetime</text>
<text text-anchor="start" x="277.172" y="-463.3" font-family="Times,serif" font-size="14.00">current_sign_in_ip :inet</text>
<text text-anchor="start" x="277.172" y="-449.3" font-family="Times,serif" font-size="14.00">last_sign_in_ip :inet</text>
<text text-anchor="start" x="277.172" y="-435.3" font-family="Times,serif" font-size="14.00">created_at :datetime</text>
<text text-anchor="start" x="277.172" y="-421.3" font-family="Times,serif" font-size="14.00">updated_at :datetime</text>
<text text-anchor="start" x="277.172" y="-407.3" font-family="Times,serif" font-size="14.00">provider :string</text>
<text text-anchor="start" x="277.172" y="-393.3" font-family="Times,serif" font-size="14.00">uid :string</text>
<text text-anchor="start" x="277.172" y="-379.3" font-family="Times,serif" font-size="14.00">confirmation_token :string</text>
<text text-anchor="start" x="277.172" y="-365.3" font-family="Times,serif" font-size="14.00">confirmed_at :datetime</text>
<text text-anchor="start" x="277.172" y="-351.3" font-family="Times,serif" font-size="14.00">confirmation_sent_at :datetime</text>
<text text-anchor="start" x="277.172" y="-337.3" font-family="Times,serif" font-size="14.00">username :string</text>
</g>
<!-- User&#45;&gt;Comment -->
<g id="edge7" class="edge"><title>User&#45;&gt;Comment</title>
<path fill="none" stroke="#e79e5e" d="M409.511,-322.355C411.328,-312.789 412.996,-303.281 414.45,-294 423.318,-237.369 428.166,-172.389 430.74,-125.051"/>
<ellipse fill="none" stroke="#e79e5e" cx="408.713" cy="-326.474" rx="4.00001" ry="4.00001"/>
<polygon fill="#e79e5e" stroke="#e79e5e" points="430.748,-124.913 435.765,-115.162 431.009,-119.92 431.271,-114.926 431.271,-114.926 431.271,-114.926 431.009,-119.92 426.777,-114.691 430.748,-124.913 430.748,-124.913"/>
</g>
<!-- User&#45;&gt;Picture -->
<g id="edge6" class="edge"><title>User&#45;&gt;Picture</title>
<path fill="none" stroke="#24c93a" d="M339.101,-322.471C337.774,-316.109 336.467,-309.845 335.194,-303.748"/>
<ellipse fill="none" stroke="#24c93a" cx="339.956" cy="-326.567" rx="4.00001" ry="4.00001"/>
<polygon fill="#24c93a" stroke="#24c93a" points="335.132,-303.447 337.494,-292.739 334.11,-298.552 333.089,-293.658 333.089,-293.658 333.089,-293.658 334.11,-298.552 328.684,-294.577 335.132,-303.447 335.132,-303.447"/>
</g>
<!-- ActiveRecord::Base -->
<g id="node6" class="node"><title>ActiveRecord::Base</title>
<ellipse fill="none" stroke="black" cx="306.45" cy="-699.5" rx="81.1422" ry="18"/>
<text text-anchor="middle" x="306.45" y="-695.3" font-family="Times,serif" font-size="14.00">ActiveRecord::Base</text>
</g>
<!-- ActiveRecord::Base&#45;&gt;Comment -->
<g id="edge1" class="edge"><title>ActiveRecord::Base&#45;&gt;Comment</title>
<path fill="none" stroke="black" d="M374.544,-689.54C413.15,-680.587 458.416,-662.705 482.45,-627 589.627,-467.775 506.506,-223.927 459.744,-114.752"/>
</g>
<!-- ActiveRecord::Base&#45;&gt;Like -->
<g id="edge2" class="edge"><title>ActiveRecord::Base&#45;&gt;Like</title>
<path fill="none" stroke="black" d="M280.524,-682.298C262.862,-669.645 240.864,-650.324 230.45,-627 149.547,-445.815 203.084,-198.684 229.823,-100.858"/>
</g>
<!-- ActiveRecord::Base&#45;&gt;Picture -->
<g id="edge5" class="edge"><title>ActiveRecord::Base&#45;&gt;Picture</title>
<path fill="none" stroke="black" d="M291.635,-681.693C280.633,-668.024 266.526,-647.676 260.45,-627 223.23,-500.356 227.876,-457.918 260.45,-330 263.567,-317.758 268.409,-305.405 273.996,-293.664"/>
</g>
<!-- ActiveRecord::Base&#45;&gt;User -->
<g id="edge8" class="edge"><title>ActiveRecord::Base&#45;&gt;User</title>
<path fill="none" stroke="black" d="M311.55,-681.315C315.456,-668.157 321.262,-648.595 327.746,-626.749"/>
</g>
</g>
</svg>
