<?xml version="1.0" encoding="UTF-8" standalone="no"?>
<!DOCTYPE svg PUBLIC "-//W3C//DTD SVG 1.1//EN"
 "http://www.w3.org/Graphics/SVG/1.1/DTD/svg11.dtd">
<!-- Generated by graphviz version 2.38.0 (20140413.2041)
 -->
<!-- Title: models_diagram Pages: 1 -->
<svg width="403pt" height="297pt"
 viewBox="0.00 0.00 403.44 297.00" xmlns="http://www.w3.org/2000/svg" xmlns:xlink="http://www.w3.org/1999/xlink">
<g id="graph0" class="graph" transform="scale(1 1) rotate(0) translate(4 293)">
<title>models_diagram</title>
<polygon fill="none" stroke="none" points="-4,4 -4,-293 399.438,-293 399.438,4 -4,4"/>
<!-- _diagram_info -->
<g id="node1" class="node"><title>_diagram_info</title>
<text text-anchor="start" x="8" y="-274.6" font-family="Times,serif" font-size="13.00">Models diagram</text>
<text text-anchor="start" x="8" y="-261.6" font-family="Times,serif" font-size="13.00">Date: Aug 15 2015 &#45; 19:54</text>
<text text-anchor="start" x="8" y="-248.6" font-family="Times,serif" font-size="13.00">Migration version: 20150321155724</text>
<text text-anchor="start" x="8" y="-235.6" font-family="Times,serif" font-size="13.00">Generated by RailRoady 1.3.1</text>
<text text-anchor="start" x="8" y="-222.6" font-family="Times,serif" font-size="13.00">http://railroady.prestonlee.com</text>
</g>
<!-- Comment -->
<g id="node2" class="node"><title>Comment</title>
<ellipse fill="none" stroke="black" cx="350.45" cy="-18" rx="44.9768" ry="18"/>
<text text-anchor="middle" x="350.45" y="-13.8" font-family="Times,serif" font-size="14.00">Comment</text>
</g>
<!-- Like -->
<g id="node3" class="node"><title>Like</title>
<ellipse fill="none" stroke="black" cx="242.45" cy="-18" rx="27" ry="18"/>
<text text-anchor="middle" x="242.45" y="-13.8" font-family="Times,serif" font-size="14.00">Like</text>
</g>
<!-- Picture -->
<g id="node4" class="node"><title>Picture</title>
<ellipse fill="none" stroke="black" cx="287.45" cy="-90" rx="35.3129" ry="18"/>
<text text-anchor="middle" x="287.45" y="-85.8" font-family="Times,serif" font-size="14.00">Picture</text>
</g>
<!-- Picture&#45;&gt;Comment -->
<g id="edge3" class="edge"><title>Picture&#45;&gt;Comment</title>
<path fill="none" stroke="#a0c31a" d="M306.945,-67.3382C313.882,-59.6307 321.732,-50.9083 328.836,-43.0154"/>
<ellipse fill="none" stroke="#a0c31a" cx="304.107" cy="-70.4915" rx="4.00002" ry="4.00002"/>
<polygon fill="#a0c31a" stroke="#a0c31a" points="328.94,-42.9001 338.974,-38.4775 332.284,-39.1837 335.629,-35.4672 335.629,-35.4672 335.629,-35.4672 332.284,-39.1837 332.284,-32.4568 328.94,-42.9001 328.94,-42.9001"/>
</g>
<!-- Picture&#45;&gt;Like -->
<g id="edge4" class="edge"><title>Picture&#45;&gt;Like</title>
<path fill="none" stroke="#3759a1" d="M272.516,-65.7693C267.978,-58.7113 262.977,-50.9308 258.377,-43.7753"/>
<ellipse fill="none" stroke="#3759a1" cx="274.85" cy="-69.3999" rx="4.00002" ry="4.00002"/>
<polygon fill="#3759a1" stroke="#3759a1" points="258.238,-43.5591 256.615,-32.7139 255.534,-39.3532 252.83,-35.1473 252.83,-35.1473 252.83,-35.1473 255.534,-39.3532 249.045,-37.5807 258.238,-43.5591 258.238,-43.5591"/>
</g>
<!-- User -->
<g id="node5" class="node"><title>User</title>
<ellipse fill="none" stroke="black" cx="333.45" cy="-162" rx="27" ry="18"/>
<text text-anchor="middle" x="333.45" y="-157.8" font-family="Times,serif" font-size="14.00">User</text>
</g>
<!-- User&#45;&gt;Comment -->
<g id="edge7" class="edge"><title>User&#45;&gt;Comment</title>
<path fill="none" stroke="#f1aca7" d="M336.496,-135.558C339.502,-110.444 344.085,-72.164 347.17,-46.3932"/>
<ellipse fill="none" stroke="#f1aca7" cx="335.976" cy="-139.9" rx="4.00001" ry="4.00001"/>
<polygon fill="#f1aca7" stroke="#f1aca7" points="347.203,-46.1184 352.86,-36.7242 347.797,-41.1538 348.392,-36.1893 348.392,-36.1893 348.392,-36.1893 347.797,-41.1538 343.924,-35.6543 347.203,-46.1184 347.203,-46.1184"/>
</g>
<!-- User&#45;&gt;Picture -->
<g id="edge6" class="edge"><title>User&#45;&gt;Picture</title>
<path fill="none" stroke="#be549f" d="M318.604,-138.409C313.924,-131.287 308.727,-123.379 303.94,-116.094"/>
<ellipse fill="none" stroke="#be549f" cx="320.815" cy="-141.773" rx="4.00002" ry="4.00002"/>
<polygon fill="#be549f" stroke="#be549f" points="303.658,-115.664 301.926,-104.836 300.912,-111.486 298.166,-107.307 298.166,-107.307 298.166,-107.307 300.912,-111.486 294.405,-109.778 303.658,-115.664 303.658,-115.664"/>
</g>
<!-- ActiveRecord::Base -->
<g id="node6" class="node"><title>ActiveRecord::Base</title>
<ellipse fill="none" stroke="black" cx="306.45" cy="-252.5" rx="81.1422" ry="18"/>
<text text-anchor="middle" x="306.45" y="-248.3" font-family="Times,serif" font-size="14.00">ActiveRecord::Base</text>
</g>
<!-- ActiveRecord::Base&#45;&gt;Comment -->
<g id="edge1" class="edge"><title>ActiveRecord::Base&#45;&gt;Comment</title>
<path fill="none" stroke="black" d="M327.552,-234.942C342.412,-221.849 361.09,-202.132 369.45,-180 388.246,-130.237 368.932,-66.1975 357.535,-36.0856"/>
</g>
<!-- ActiveRecord::Base&#45;&gt;Like -->
<g id="edge2" class="edge"><title>ActiveRecord::Base&#45;&gt;Like</title>
<path fill="none" stroke="black" d="M296.318,-234.595C281.329,-208.514 253.892,-156.406 243.45,-108 238.171,-83.53 239.173,-54.3897 240.62,-36.2889"/>
</g>
<!-- ActiveRecord::Base&#45;&gt;Picture -->
<g id="edge5" class="edge"><title>ActiveRecord::Base&#45;&gt;Picture</title>
<path fill="none" stroke="black" d="M304.24,-234.461C302.378,-219.98 299.669,-198.635 297.45,-180 294.47,-154.988 291.257,-125.992 289.299,-108.07"/>
</g>
<!-- ActiveRecord::Base&#45;&gt;User -->
<g id="edge8" class="edge"><title>ActiveRecord::Base&#45;&gt;User</title>
<path fill="none" stroke="black" d="M311.656,-234.436C316.467,-218.665 323.574,-195.37 328.351,-179.711"/>
</g>
</g>
</svg>
